<svg version="1.1" id="Layer_1" xmlns="http://www.w3.org/2000/svg" xmlns:xlink="http://www.w3.org/1999/xlink" x="0px" y="0px"
	 width="100%" viewBox="0 0 192 192" enable-background="new 0 0 192 192" xml:space="preserve">
<path fill="#000000" opacity="1.000000" stroke="none" 
	d="
M105.000000,193.000000 
	C70.000000,193.000000 35.500004,193.000000 1.000005,193.000000 
	C1.000003,129.000000 1.000003,65.000015 1.000002,1.000013 
	C64.999992,1.000009 128.999985,1.000009 192.999969,1.000004 
	C192.999985,64.999985 192.999985,128.999969 193.000000,192.999969 
	C163.833328,193.000000 134.666672,193.000000 105.000000,193.000000 
M100.330879,33.405899 
	C97.499748,33.405239 94.668327,33.378201 91.837524,33.408253 
	C75.332253,33.583473 61.252899,40.067623 49.944477,51.554382 
	C36.749920,64.957024 31.709381,81.681892 33.355446,100.443207 
	C33.655025,103.857727 35.497150,105.885384 38.492260,106.239479 
	C41.595207,106.606323 43.705555,104.720009 44.621830,101.544258 
	C45.512836,98.456078 45.645039,95.343658 45.638115,92.171814 
	C45.601696,75.487282 53.442238,62.832745 66.734520,53.706718 
	C88.782188,38.569542 121.842476,44.049820 138.383408,66.690865 
	C140.769592,69.957039 143.748810,71.882477 147.744659,69.656532 
	C151.282196,67.685913 151.706985,64.189690 148.425934,59.753002 
	C136.712372,43.913719 120.866737,35.256599 100.330879,33.405899 
M117.998032,141.575424 
	C119.859344,139.917511 120.301224,137.744873 120.691635,135.362442 
	C122.279976,125.669846 122.147591,115.868889 122.929008,106.139870 
	C123.590721,97.901260 122.057877,90.723930 117.474693,84.107590 
	C108.008347,70.441849 84.450623,71.048805 75.399246,84.880844 
	C70.817245,91.882912 70.701706,99.727226 70.536583,107.399002 
	C70.349937,116.070099 69.395264,124.584053 67.972992,133.081696 
	C67.174217,137.854095 68.742569,141.346527 72.662872,141.910294 
	C76.979439,142.531036 78.915390,139.965515 79.707077,135.995575 
	C81.525658,126.876167 83.018745,117.719772 82.578644,108.389748 
	C82.380135,104.181404 83.117821,100.106407 83.802483,96.038483 
	C84.707039,90.664101 89.163979,87.095573 94.600792,86.638672 
	C106.684853,85.623116 112.181679,94.787422 111.131935,105.053345 
	C110.122276,114.927208 110.174721,124.869263 108.542191,134.718750 
	C107.508385,140.955948 110.863205,143.262924 117.998032,141.575424 
M99.133995,53.420261 
	C94.630508,53.186306 90.152367,53.400333 85.790039,54.596363 
	C82.349815,55.539577 80.085518,57.904240 80.617142,61.492119 
	C81.146645,65.065659 83.928925,66.706131 87.545044,66.566574 
	C88.686890,66.522507 89.817596,66.164093 90.951317,65.939011 
	C108.629593,62.429352 128.541260,77.507454 130.486664,95.323250 
	C131.614243,105.649620 130.350006,115.763741 129.455185,125.945389 
	C129.062439,130.414383 131.349350,134.138824 135.378204,134.267212 
	C139.463120,134.397400 141.253174,131.552460 141.571106,127.876976 
	C142.495026,117.195984 143.772675,106.581505 142.780106,95.754814 
	C141.452530,81.274170 134.417831,70.514091 123.106476,62.094982 
	C116.264587,57.002506 108.293800,54.820049 99.133995,53.420261 
M84.766602,157.967682 
	C89.509743,162.545731 94.083824,161.686523 95.980057,155.449905 
	C98.732048,146.398743 100.162239,137.042862 101.700027,127.708260 
	C102.982643,119.922592 102.063652,112.085350 102.938148,104.330795 
	C103.529114,99.090431 101.174774,94.709984 97.172760,94.487083 
	C93.572014,94.286530 91.874977,97.208611 91.308182,102.734459 
	C90.109299,114.422813 89.989471,126.195183 87.664673,137.814667 
	C86.380486,144.233078 83.511642,150.489502 84.766602,157.967682 
M52.343918,86.773117 
	C52.024109,88.731316 51.619232,90.679977 51.398632,92.649292 
	C50.182507,103.505737 50.893040,114.514832 48.662136,125.305611 
	C47.930645,128.843796 49.638016,131.604904 53.207996,132.536102 
	C57.138435,133.561340 59.700981,131.766464 60.534279,127.812622 
	C62.043556,120.651337 62.588192,113.409225 62.697166,106.077515 
	C62.847805,95.942680 63.247932,85.801414 70.113258,77.276863 
	C72.511650,74.298836 71.713013,71.303589 68.577423,69.116295 
	C65.421898,66.915092 62.750427,67.513000 60.357155,70.523674 
	C56.678501,75.151314 54.065815,80.286179 52.343918,86.773117 
M160.296951,104.417931 
	C160.666183,97.621727 161.444702,90.789886 159.472015,84.113121 
	C158.509140,80.854172 156.135391,79.175583 152.673447,79.473671 
	C149.486771,79.748055 147.286514,82.232544 147.727036,84.770073 
	C148.728470,90.538857 147.540298,96.413681 149.085785,102.087936 
	C150.790665,108.347458 155.048767,109.560890 160.296951,104.417931 
z"/>
</svg>